# xmcd
#
# Track frame offsets: 
#        150
#        19596
#        39047
#        53581
#        81930
#        107835
#        128716
#        147782
#        174989
#        198778
#        227313
#
# Disc length: 3373 seconds
#
# Revision: 0
# Processed by: cddbd v1.5.2PL0 Copyright (c) Steve Scherf et al.
# Submitted via: ExactAudioCopy v0.99pb1
#
DISCID=770d2b0b
DTITLE=Robben Ford - Truth
DYEAR=2007
DGENRE=Blues
TTITLE0=Lateral Climb
TTITLE1=How Deep In The Blues (Do You Want To Go)
TTITLE2=Nobody's Fault But Mine
TTITLE3=Riley B.King
TTITLE4=You're Gonna Need A Friend
TTITLE5=One Man's Ceiling Is Another Man's Floor
TTITLE6=Too Much
TTITLE7=Peace On My Mind
TTITLE8=There'll Never Be Another You
TTITLE9=River Of Soul
TTITLE10=Moonchild Blues
EXTD=
EXTT0=
EXTT1=
EXTT2=
EXTT3=
EXTT4=
EXTT5=
EXTT6=
EXTT7=
EXTT8=
EXTT9=
EXTT10=
PLAYORDER=
